<?xml version="1.0" encoding="UTF-8"?>
<svg version="1.1" xmlns="http://www.w3.org/2000/svg" width="64" height="64">
<path d="M0 0 C1.8569751 -0.00472824 1.8569751 -0.00472824 3.75146484 -0.009552 C5.11295609 -0.00776222 6.47444701 -0.00571127 7.8359375 -0.00341797 C9.22216814 -0.00409106 10.60839867 -0.00506113 11.99462891 -0.00631714 C14.90333172 -0.00779387 17.81200387 -0.00564037 20.72070312 -0.00097656 C24.45690348 0.00472073 28.19303202 0.00144159 31.92922974 -0.00454903 C34.79273016 -0.00815532 37.65621343 -0.00701574 40.51971436 -0.00442123 C41.89768482 -0.00375215 43.27565682 -0.00457973 44.65362549 -0.00690079 C46.57637504 -0.00942839 48.49913002 -0.0048957 50.421875 0 C52.06615479 0.00119339 52.06615479 0.00119339 53.74365234 0.00241089 C56.2109375 0.12939453 56.2109375 0.12939453 57.2109375 1.12939453 C57.35208911 3.79998304 57.25340857 6.45371691 57.2109375 9.12939453 C54.53993467 10.46489594 52.49862526 10.25653454 49.5078125 10.25878906 C48.31317383 10.26194122 47.11853516 10.26509338 45.88769531 10.26834106 C44.59186523 10.26631683 43.29603516 10.2642926 41.9609375 10.26220703 C40.62337222 10.26288042 39.28580705 10.26385074 37.94824219 10.2651062 C35.14386837 10.26658151 32.33952638 10.26443396 29.53515625 10.25976562 C25.9369656 10.25406842 22.33884953 10.25734832 18.74066162 10.26333809 C15.97834713 10.26694819 13.21605037 10.26580304 10.45373535 10.2632103 C8.48054964 10.2622169 6.50736324 10.26525873 4.53417969 10.26834106 C3.33954102 10.2651889 2.14490234 10.26203674 0.9140625 10.25878906 C-0.14135742 10.25799347 -1.19677734 10.25719788 -2.28417969 10.25637817 C-4.7890625 10.12939453 -4.7890625 10.12939453 -6.7890625 9.12939453 C-6.88671875 2.97705078 -6.88671875 2.97705078 -6.7890625 1.12939453 C-5.00989783 -0.64977014 -2.40592951 0.00174618 0 0 Z " fill="#E0E0E0" transform="translate(6.7890625,44.87060546875)"/>
<path d="M0 0 C1.19463867 -0.00315216 2.38927734 -0.00630432 3.62011719 -0.009552 C4.91594727 -0.00752777 6.21177734 -0.00550354 7.546875 -0.00341797 C8.88444028 -0.00409136 10.22200545 -0.00506168 11.55957031 -0.00631714 C14.36394413 -0.00779245 17.16828612 -0.0056449 19.97265625 -0.00097656 C23.5708469 0.00472064 27.16896297 0.00144075 30.76715088 -0.00454903 C33.52946537 -0.00815913 36.29176213 -0.00701398 39.05407715 -0.00442123 C41.02726286 -0.00342784 43.00044926 -0.00646967 44.97363281 -0.009552 C46.16827148 -0.00639984 47.36291016 -0.00324768 48.59375 0 C49.64916992 0.00079559 50.70458984 0.00159119 51.79199219 0.00241089 C54.296875 0.12939453 54.296875 0.12939453 56.296875 1.12939453 C56.39453125 7.28173828 56.39453125 7.28173828 56.296875 9.12939453 C54.51771033 10.9085592 51.91374201 10.25704288 49.5078125 10.25878906 C48.2698291 10.26194122 47.0318457 10.26509338 45.75634766 10.26834106 C44.39485641 10.26655128 43.03336549 10.26450033 41.671875 10.26220703 C40.28564436 10.26288012 38.89941383 10.26385019 37.51318359 10.2651062 C34.60448078 10.26658293 31.69580863 10.26442943 28.78710938 10.25976562 C25.05090902 10.25406834 21.31478048 10.25734748 17.57858276 10.26333809 C14.71508234 10.26694438 11.85159907 10.2658048 8.98809814 10.2632103 C7.61012768 10.26254122 6.23215568 10.2633688 4.85418701 10.26568985 C2.93143746 10.26821745 1.00868248 10.26368477 -0.9140625 10.25878906 C-2.55834229 10.25759567 -2.55834229 10.25759567 -4.23583984 10.25637817 C-6.703125 10.12939453 -6.703125 10.12939453 -7.703125 9.12939453 C-7.84427661 6.45880602 -7.74559607 3.80507215 -7.703125 1.12939453 C-5.03212217 -0.20610688 -2.99081276 0.00225452 0 0 Z " fill="#E0E0E0" transform="translate(7.703125,8.87060546875)"/>
<path d="M0 0 C1.19463867 -0.00315216 2.38927734 -0.00630432 3.62011719 -0.009552 C4.91594727 -0.00752777 6.21177734 -0.00550354 7.546875 -0.00341797 C8.88444028 -0.00409136 10.22200545 -0.00506168 11.55957031 -0.00631714 C14.36394413 -0.00779245 17.16828612 -0.0056449 19.97265625 -0.00097656 C23.5708469 0.00472064 27.16896297 0.00144075 30.76715088 -0.00454903 C33.52946537 -0.00815913 36.29176213 -0.00701398 39.05407715 -0.00442123 C41.02726286 -0.00342784 43.00044926 -0.00646967 44.97363281 -0.009552 C46.16827148 -0.00639984 47.36291016 -0.00324768 48.59375 0 C49.64916992 0.00079559 50.70458984 0.00159119 51.79199219 0.00241089 C54.296875 0.12939453 54.296875 0.12939453 56.296875 1.12939453 C56.296875 3.76939453 56.296875 6.40939453 56.296875 9.12939453 C53.62587217 10.46489594 51.58456276 10.25653454 48.59375 10.25878906 C47.39911133 10.26194122 46.20447266 10.26509338 44.97363281 10.26834106 C43.67780273 10.26631683 42.38197266 10.2642926 41.046875 10.26220703 C39.70930972 10.26288042 38.37174455 10.26385074 37.03417969 10.2651062 C34.22980587 10.26658151 31.42546388 10.26443396 28.62109375 10.25976562 C25.0229031 10.25406842 21.42478703 10.25734832 17.82659912 10.26333809 C15.06428463 10.26694819 12.30198787 10.26580304 9.53967285 10.2632103 C7.56648714 10.2622169 5.59330074 10.26525873 3.62011719 10.26834106 C2.42547852 10.2651889 1.23083984 10.26203674 0 10.25878906 C-1.05541992 10.25799347 -2.11083984 10.25719788 -3.19824219 10.25637817 C-5.703125 10.12939453 -5.703125 10.12939453 -7.703125 9.12939453 C-7.703125 6.48939453 -7.703125 3.84939453 -7.703125 1.12939453 C-5.03212217 -0.20610688 -2.99081276 0.00225452 0 0 Z " fill="#DFDFDF" transform="translate(7.703125,26.87060546875)"/>
</svg>
